<svg width="114" height="75" viewBox="0 0 114 75" fill="none" xmlns="http://www.w3.org/2000/svg">
<path d="M9 56.5H2.5L15 44L27.5 56.5H20.5C20.5 65 20.5 65 33 65C44.5109 65 44.5 65 44.5 57V13V10.5H37.5L57 1.5L76 10.5H69V13V32.5H97C101 32.5 101 32.5 101 26.5C101 20.5 101 20.5 97 20.5H80V23L69.5 16L80 9.5V11.5H101C106 11.5 112.5 15 112.5 26C112.5 37 106 41 101 41H69V64.5H97C101 64.5 101 64.5 101 58C101 51.5 101 52 97 52H80V54.5L69.5 48L80 41.5V44H101C105.5 44 112.5 46.5 112.5 58C112.5 69.5 107.5 73.5 101 73.5H57.5V13H56V60C56 66.75 51.2473 73.5 40 73.5H23C17.7093 73.5 9 68.5 9 62V56.5Z" fill="#FFD00F"/>
<path d="M9 56.5H9.75V55.75H9V56.5ZM2.5 56.5L1.96967 55.9697L0.68934 57.25H2.5V56.5ZM15 44L15.5303 43.4697L15 42.9393L14.4697 43.4697L15 44ZM27.5 56.5V57.25H29.3107L28.0303 55.9697L27.5 56.5ZM20.5 56.5V55.75H19.75V56.5H20.5ZM44.5 10.5H45.25V9.75H44.5V10.5ZM37.5 10.5L37.1857 9.81903L37.5 11.25V10.5ZM57 1.5L57.3211 0.822197L57.0041 0.672068L56.6857 0.81903L57 1.5ZM76 10.5V11.25L76.3211 9.8222L76 10.5ZM69 10.5V9.75H68.25V10.5H69ZM69 32.5H68.25V33.25H69V32.5ZM80 20.5V19.75H79.25V20.5H80ZM80 23L79.584 23.624L80.75 24.4014V23H80ZM69.5 16L69.1052 15.3623L68.1129 15.9766L69.084 16.624L69.5 16ZM80 9.5H80.75V8.15364L79.6052 8.8623L80 9.5ZM80 11.5H79.25V12.25H80V11.5ZM69 41V40.25H68.25V41H69ZM69 64.5H68.25V65.25H69V64.5ZM80 52V51.25H79.25V52H80ZM80 54.5L79.6052 55.1377L80.75 55.8464V54.5H80ZM69.5 48L69.1052 47.3623L68.0751 48L69.1052 48.6377L69.5 48ZM80 41.5H80.75V40.1536L79.6052 40.8623L80 41.5ZM80 44H79.25V44.75H80V44ZM57.5 73.5H56.75V74.25H57.5V73.5ZM9 55.75H2.5V57.25H9V55.75ZM3.03033 57.0303L15.5303 44.5303L14.4697 43.4697L1.96967 55.9697L3.03033 57.0303ZM14.4697 44.5303L26.9697 57.0303L28.0303 55.9697L15.5303 43.4697L14.4697 44.5303ZM27.5 55.75H20.5V57.25H27.5V55.75ZM19.75 56.5C19.75 58.5983 19.7476 60.2651 19.9551 61.535C20.1681 62.8384 20.6235 63.866 21.6408 64.5577C22.5979 65.2085 23.9453 65.4812 25.7169 65.6151C27.5098 65.7505 29.8875 65.75 33 65.75V64.25C29.8625 64.25 27.5527 64.2495 25.8299 64.1193C24.0859 63.9875 23.0896 63.729 22.4842 63.3173C21.939 62.9465 21.6131 62.3804 21.4355 61.2931C21.2524 60.1724 21.25 58.6517 21.25 56.5H19.75ZM33 65.75C35.8649 65.75 38.0572 65.7505 39.7108 65.6228C41.3434 65.4966 42.5997 65.239 43.4951 64.6155C44.4477 63.9522 44.8673 62.971 45.0625 61.7427C45.2529 60.545 45.25 58.9737 45.25 57H43.75C43.75 59.0263 43.7484 60.455 43.5811 61.5073C43.4187 62.529 43.1216 63.0478 42.638 63.3845C42.0973 63.761 41.198 64.0034 39.5952 64.1272C38.0134 64.2495 35.8905 64.25 33 64.25V65.75ZM44.5 9.75H37.5V11.25H44.5V9.75ZM37.8143 11.181L57.3143 2.18097L56.6857 0.81903L37.1857 9.81903L37.8143 11.181ZM56.6789 2.1778L75.6789 11.1778L76.3211 9.8222L57.3211 0.822197L56.6789 2.1778ZM76 9.75H69V11.25H76V9.75ZM69 33.25H97V31.75H69V33.25ZM97 19.75H80V21.25H97V19.75ZM79.25 20.5V23H80.75V20.5H79.25ZM80.416 22.376L69.916 15.376L69.084 16.624L79.584 23.624L80.416 22.376ZM69.8948 16.6377L80.3948 10.1377L79.6052 8.8623L69.1052 15.3623L69.8948 16.6377ZM79.25 9.5V11.5H80.75V9.5H79.25ZM80 12.25H101V10.75H80V12.25ZM101 12.25C103.333 12.25 106.007 13.0672 108.095 15.1553C110.174 17.2347 111.75 20.652 111.75 26H113.25C113.25 20.348 111.576 16.5153 109.155 14.0947C106.743 11.6828 103.667 10.75 101 10.75V12.25ZM111.75 26C111.75 31.3482 110.173 34.9001 108.081 37.1092C105.981 39.3258 103.307 40.25 101 40.25V41.75C103.693 41.75 106.769 40.6742 109.169 38.1408C111.577 35.5999 113.25 31.6518 113.25 26H111.75ZM101 40.25H69V41.75H101V40.25ZM68.25 41V64.5H69.75V41H68.25ZM69 65.25H97V63.75H69V65.25ZM97 51.25H80V52.75H97V51.25ZM79.25 52V54.5H80.75V52H79.25ZM69.8948 48.6377L80.3948 42.1377L79.6052 40.8623L69.1052 47.3623L69.8948 48.6377ZM79.25 41.5V44H80.75V41.5H79.25ZM80 44.75H101V43.25H80V44.75ZM101 44.75C103.127 44.75 105.803 45.3426 107.938 47.2472C110.055 49.1348 111.75 52.4092 111.75 58H113.25C113.25 52.0908 111.445 48.3652 108.937 46.1278C106.447 43.9074 103.373 43.25 101 43.25V44.75ZM111.75 58C111.75 63.6572 110.518 67.3289 108.615 69.578C106.73 71.8053 104.091 72.75 101 72.75V74.25C104.409 74.25 107.52 73.1947 109.76 70.547C111.982 67.9211 113.25 63.8428 113.25 58H111.75ZM101 72.75H57.5V74.25H101V72.75ZM55.25 60C55.25 63.2004 54.1248 66.3725 51.6939 68.7445C49.2675 71.1122 45.47 72.75 40 72.75V74.25C45.7773 74.25 49.9798 72.5128 52.7415 69.818C55.4988 67.1275 56.75 63.5496 56.75 60H55.25ZM40 72.75H23V74.25H40V72.75ZM23 72.75C20.549 72.75 17.1999 71.5738 14.4568 69.5807C11.7071 67.5828 9.75 64.9042 9.75 62H8.25C8.25 65.5958 10.6476 68.6672 13.5751 70.7943C16.5094 72.9262 20.1603 74.25 23 74.25V72.75ZM9.75 62V56.5H8.25V62H9.75ZM97 65.25C97.9706 65.25 98.8012 65.2529 99.4458 65.1365C100.137 65.0116 100.74 64.7283 101.139 64.0806C101.493 63.5054 101.623 62.7322 101.686 61.809C101.75 60.8632 101.75 59.6137 101.75 58H100.25C100.25 59.6363 100.25 60.8243 100.189 61.7066C100.127 62.6115 100.007 63.0571 99.8613 63.2944C99.7598 63.4592 99.6126 63.5821 99.1792 63.6604C98.6988 63.7471 98.0294 63.75 97 63.75V65.25ZM101.75 58C101.75 56.3876 101.75 55.1672 101.686 54.2664C101.623 53.3967 101.494 52.6535 101.107 52.1214C100.669 51.5193 100.028 51.3394 99.3851 51.277C98.7744 51.2176 97.9463 51.25 97 51.25V52.75C98.0537 52.75 98.7256 52.7199 99.2399 52.7699C99.7223 52.8168 99.8313 52.9182 99.8934 53.0036C100.006 53.159 100.127 53.5096 100.189 54.3742C100.25 55.2078 100.25 56.3624 100.25 58H101.75ZM97 33.25C97.9728 33.25 98.7973 33.2525 99.4358 33.146C100.11 33.0336 100.716 32.7784 101.124 32.166C101.49 31.6164 101.622 30.8807 101.685 30.0242C101.75 29.146 101.75 27.9877 101.75 26.5H100.25C100.25 28.0123 100.25 29.104 100.19 29.9133C100.128 30.7443 100.01 31.1336 99.876 31.334C99.7842 31.4716 99.6396 31.5914 99.1892 31.6665C98.7027 31.7475 98.0272 31.75 97 31.75V33.25ZM101.75 26.5C101.75 25.0123 101.75 23.854 101.685 22.9758C101.622 22.1193 101.49 21.3836 101.124 20.834C100.716 20.2216 100.11 19.9664 99.4358 19.854C98.7973 19.7475 97.9728 19.75 97 19.75V21.25C98.0272 21.25 98.7027 21.2525 99.1892 21.3335C99.6396 21.4086 99.7842 21.5284 99.876 21.666C100.01 21.8664 100.128 22.2557 100.19 23.0867C100.25 23.896 100.25 24.9877 100.25 26.5H101.75ZM69.1052 48.6377L79.6052 55.1377L80.3948 53.8623L69.8948 47.3623L69.1052 48.6377ZM56.75 60V13H55.25V60H56.75ZM56.75 13V73.5H58.25V13H56.75ZM45.25 57V13H43.75V57H45.25ZM45.25 13V10.5H43.75V13H45.25ZM68.25 10.5V13H69.75V10.5H68.25ZM68.25 13V32.5H69.75V13H68.25ZM44.5 13.75H56V12.25H44.5V13.75ZM56 13.75H57.5V12.25H56V13.75ZM57.5 13.75H69V12.25H57.5V13.75Z" fill="black"/>
</svg>
